<svg width="56" height="47" viewBox="0 0 56 47" fill="none" xmlns="http://www.w3.org/2000/svg">
<path d="M56 38.5869C55.9915 38.9388 55.7664 38.9868 55.4759 38.9751C54.8038 38.9484 54.1317 38.9356 53.4597 38.9175C52.9237 38.9036 52.5239 38.6104 52.1938 38.2318C51.526 37.4683 50.8732 36.6909 50.2226 35.9114C49.8185 35.4262 49.4241 34.9314 49.0435 34.427C49.0231 34.374 49.0169 34.3166 49.0255 34.2605C49.0342 34.2044 49.0574 34.1515 49.0928 34.1071C50.3019 33.3286 51.1744 32.2249 52.0405 31.1212C52.1746 30.9325 52.2868 30.7293 52.3749 30.5155C52.4735 30.3022 52.3803 30.1444 52.167 30.0815C51.945 30.0133 51.7171 29.9655 51.4864 29.9386C51.2902 29.9194 51.2345 29.8319 51.2355 29.6528C51.2355 29.4534 51.3427 29.4395 51.5046 29.4395C52.6901 29.4395 53.8745 29.4395 55.0525 29.4395C55.1597 29.8383 55.135 29.8885 54.7545 29.9439C54.1856 30.0156 53.662 30.2898 53.2807 30.716C52.4432 31.6451 51.6039 32.5718 50.7628 33.496C50.6342 33.6357 50.6974 33.7264 50.7811 33.8309C51.4338 34.6434 52.0673 35.4678 52.7469 36.2611C53.1756 36.7709 53.6708 37.2326 54.1339 37.7189C54.5487 38.154 55.0407 38.4216 55.656 38.4472C55.7736 38.4644 55.889 38.4944 56 38.5368V38.5869Z" fill="black"/>
<path d="M26.102 46.6796L25.7805 46.5901C24.9487 46.3512 24.4438 45.6303 24.4492 44.6844C24.441 44.2626 24.5764 43.8505 24.8335 43.5149C25.0906 43.1794 25.4542 42.9403 25.8652 42.8364C27.0689 42.4962 28.1622 43.0731 28.3712 44.2099C28.621 45.5717 27.8567 46.4493 26.817 46.6338C26.7817 46.645 26.7479 46.6604 26.7162 46.6796H26.102ZM27.6595 44.9734C27.6359 44.3763 27.5748 43.8985 27.2747 43.4901C27.1533 43.3055 26.9793 43.1612 26.775 43.0756C26.5707 42.9899 26.3453 42.9668 26.1278 43.0092C25.6636 43.087 25.431 43.4218 25.3228 43.8409C25.1785 44.3357 25.1957 44.8633 25.3721 45.3477C25.4723 45.6246 25.6276 45.8785 25.8287 46.0942C26.4172 46.6775 27.3004 46.444 27.5384 45.657C27.5961 45.432 27.6376 45.2032 27.6627 44.9724L27.6595 44.9734Z" fill="black"/>
<path d="M13.1431 46.6796C13.0359 46.654 12.9287 46.6284 12.8215 46.605C11.6168 46.3405 11.2534 45.401 11.3799 44.4072C11.4967 43.4922 12.1173 42.8929 13.0809 42.7959C13.6662 42.7361 14.2654 42.8065 14.8828 42.8193C14.8506 43.1968 14.8302 43.5007 14.7938 43.8025C14.7884 43.8462 14.7123 43.8825 14.6695 43.923C14.63 43.8903 14.5956 43.8518 14.5676 43.8089C14.4669 43.5956 14.4283 43.2928 14.2632 43.1936C13.9929 43.0557 13.6923 42.9871 13.3886 42.9942C12.7776 42.9825 12.396 43.3216 12.2331 43.9614C12.0819 44.5132 12.1281 45.1001 12.3638 45.6218C12.4739 45.8755 12.6583 46.0903 12.8929 46.2383C13.1275 46.3863 13.4014 46.4605 13.679 46.4514C14.0006 46.4386 14.0906 46.3533 14.1164 46.0355C14.1249 45.9438 14.1282 45.85 14.1282 45.7572C14.1282 45.2848 14.0992 45.1739 13.6555 45.1462C13.5911 45.1462 13.5301 45.0705 13.4679 45.0299L13.4968 44.9659H15.1861C15.0639 45.1952 14.722 45.2709 14.8077 45.6058C14.872 45.851 14.8495 46.1176 14.8699 46.4589L13.9288 46.6839L13.1431 46.6796Z" fill="black"/>
<path d="M33.0575 46.6797C32.9974 46.6574 32.9362 46.6382 32.8742 46.6221C32.3125 46.4941 31.9759 46.1678 31.932 45.5941C31.8795 44.918 31.8848 44.2387 31.8763 43.5605C31.8763 43.2854 31.8441 43.054 31.4915 43.0273C31.44 43.0273 31.3939 42.942 31.291 42.845H33.0425L33.08 42.9164C33.0125 42.958 32.9481 43.0284 32.8763 43.0358C32.8338 43.0354 32.7917 43.044 32.7529 43.061C32.714 43.078 32.6792 43.1032 32.6509 43.1347C32.6226 43.1662 32.6013 43.2034 32.5886 43.2437C32.5759 43.284 32.5721 43.3266 32.5773 43.3686C32.5858 44.0649 32.5698 44.7644 32.6255 45.4576C32.6705 46.0014 33.0446 46.2776 33.6052 46.2883C34.2322 46.3011 34.5699 46.091 34.6288 45.5077C34.6985 44.789 34.6781 44.0617 34.6771 43.3376C34.6771 43.1169 34.482 43.0742 34.2987 43.039C34.2132 43.0143 34.1303 42.9815 34.0511 42.9409L34.0843 42.8514H35.5174L35.5582 42.9143C35.5008 42.9677 35.4344 43.0107 35.362 43.0412C35.153 43.0881 35.0737 43.2118 35.0662 43.4176C35.0447 43.9839 35.0158 44.5501 34.9879 45.1164C34.9493 45.9108 34.6128 46.4802 33.7863 46.6754L33.0575 46.6797Z" fill="black"/>
<path d="M27.9221 19.1095C26.3722 17.5099 24.8062 15.937 23.8093 13.9344C22.1779 10.6563 22.3248 7.42946 24.2381 4.30497C25.0012 3.06157 26.951 0.846704 28.0132 0C28.0713 0.120873 28.1432 0.234664 28.2276 0.339108C29.3531 1.45667 30.471 2.5849 31.3446 3.91361C33.7188 7.52436 33.7456 11.1874 31.4968 14.86C30.5321 16.4499 29.2255 17.7701 27.9221 19.1095Z" fill="url(#paint0_linear_27_14)"/>
<path d="M6.88871 29.4438H17.7918C17.7179 30.1668 17.6396 30.925 17.5592 31.7055C17.4671 31.7141 17.376 31.7215 17.2848 31.7322C17.1112 31.7535 17.0469 31.6789 17.0147 31.5051C16.9581 31.1963 16.8793 30.8919 16.7789 30.5944C16.7474 30.485 16.6814 30.3885 16.5908 30.319C16.5001 30.2495 16.3895 30.2108 16.2751 30.2084C15.4916 30.1849 14.7081 30.1646 13.9245 30.1753C13.8302 30.1753 13.6619 30.3811 13.6598 30.4952C13.6394 31.5083 13.6437 32.5213 13.6598 33.5354C13.6737 33.5811 13.6993 33.6224 13.734 33.6553C13.7688 33.6882 13.8115 33.7116 13.8581 33.7231C14.5494 33.7231 15.2397 33.7007 15.9311 33.6911C16.229 33.6911 16.3952 33.5312 16.4756 33.2646C16.5024 33.1761 16.5313 33.0886 16.5528 32.998C16.6599 32.5459 16.6814 32.5341 17.1444 32.645V35.6138C17.0179 35.6394 16.8884 35.6476 16.7596 35.6383C16.676 35.6192 16.6074 35.5253 16.5345 35.4613C16.5227 35.4517 16.5238 35.4261 16.5217 35.408C16.4145 34.5549 16.1219 34.5059 15.3994 34.5123C14.9042 34.5123 14.409 34.5123 13.9138 34.5037C13.7209 34.5037 13.6458 34.5688 13.648 34.7618C13.6576 35.6639 13.648 36.5661 13.6673 37.4672C13.6748 37.963 13.8248 38.1241 14.3157 38.1486C15.005 38.1817 15.6963 38.1891 16.3877 38.2051C16.59 38.2156 16.7913 38.1705 16.9696 38.0748C17.1479 37.9791 17.2963 37.8364 17.3985 37.6623C17.6268 37.3019 17.839 36.9297 18.033 36.5501C18.122 36.3784 18.2013 36.3176 18.3953 36.3859C18.5893 36.4541 18.6611 36.5416 18.5915 36.7506C18.3996 37.3318 18.2195 37.9161 18.0448 38.5026C17.9505 38.8226 17.7458 38.942 17.422 38.9377C16.198 38.9207 14.9739 38.9057 13.7498 38.9047C12.6651 38.9047 11.5814 38.9217 10.4977 38.9303C10.353 38.9303 10.1976 38.975 10.1815 38.7351C10.1654 38.4952 10.2769 38.4493 10.472 38.4291C10.741 38.4003 11.0079 38.3629 11.2748 38.3107C11.6918 38.2296 11.8472 38.0548 11.859 37.6229C11.8826 36.7399 11.903 35.857 11.9008 34.974C11.9008 33.5415 11.8869 32.1097 11.859 30.6786C11.8515 30.219 11.7122 30.0719 11.2491 29.9951C10.9703 29.9466 10.6873 29.9263 10.4045 29.9343C9.65415 29.9642 9.23826 30.4046 8.97244 31.0689C7.93272 33.6805 6.87584 36.2856 5.82433 38.8929C5.8104 38.9271 5.79432 38.959 5.77074 39.0092C5.4406 39.0092 5.10618 39.0177 4.77282 39.0017C4.71172 39.0017 4.6249 38.91 4.59918 38.8428C3.74168 36.5778 2.89704 34.3096 2.04275 32.0436C1.8959 31.6533 1.71154 31.2769 1.56255 30.8876C1.34817 30.3257 0.932284 30.0345 0.349183 29.9492C-0.044196 29.8884 -0.0495541 29.865 0.0640649 29.4406H4.11362C4.25082 29.4406 4.40302 29.4022 4.40195 29.6293C4.40195 29.8053 4.39016 29.9418 4.16078 29.9492C4.05089 29.9613 3.9429 29.9868 3.83922 30.0249C3.33651 30.1625 3.28827 30.2499 3.46942 30.7298C3.86173 31.7713 4.25653 32.8124 4.65384 33.8532C4.99363 34.7362 5.34199 35.617 5.68713 36.4978C5.71929 36.5821 5.75895 36.6631 5.81683 36.7954C5.86537 36.7276 5.90873 36.6563 5.94653 36.5821C6.66111 34.7294 7.37284 32.8761 8.08171 31.022C8.11084 30.9439 8.13518 30.8641 8.15459 30.7831C8.26178 30.3374 8.13852 30.1433 7.68404 30.0452C7.52862 30.0111 7.37427 29.9759 7.21777 29.9503C6.79224 29.8778 6.79224 29.8799 6.88871 29.4438Z" fill="black"/>
<path d="M28.6177 19.3622C30.5278 17.9962 32.5107 16.8637 34.8849 16.6056C37.391 16.3337 39.7255 16.852 41.8961 18.1146C42.5639 18.5038 43.2156 18.9175 43.8683 19.3164C43.8576 19.3622 43.8587 19.3846 43.8491 19.391C42.4438 20.3508 41.0043 21.2465 39.3547 21.7232C36.1573 22.6477 33.1378 22.218 30.307 20.4723C29.8396 20.1833 29.383 19.8762 28.9221 19.5766C28.8288 19.5158 28.7399 19.4486 28.6177 19.3622Z" fill="url(#paint1_linear_27_14)"/>
<path d="M11.814 19.2343C12.6136 18.7384 13.3296 18.2745 14.0649 17.8405C15.9857 16.7262 18.0684 16.2921 20.2818 16.4404C22.0172 16.5577 23.6207 17.109 25.1192 17.9696C25.8041 18.3641 26.4708 18.7896 27.2093 19.2396C26.474 19.6875 25.802 20.1151 25.1138 20.5118C23.7418 21.3009 22.2766 21.8341 20.6945 22.0047C18.2988 22.2585 16.0479 21.8042 13.9695 20.58C13.2653 20.1663 12.5814 19.7141 11.814 19.2343Z" fill="url(#paint2_linear_27_14)"/>
<path d="M32.4497 15.8208C32.7713 15.2076 33.0928 14.6414 33.3726 14.0591C33.7923 13.1768 34.078 12.2374 34.2204 11.2716C34.4648 9.72323 35.3749 8.69417 36.6858 7.94984C37.6569 7.39852 38.7223 7.17778 39.8221 7.12446C40.5949 7.08821 41.3699 7.11807 42.1395 7.11807C42.1395 7.5041 42.1545 7.86453 42.1395 8.21964C42.087 9.24229 41.9701 10.2564 41.6175 11.2268C41.0344 12.8264 39.9475 13.9781 38.4126 14.7096C36.5325 15.6064 34.5227 15.8197 32.4497 15.8208Z" fill="url(#paint3_linear_27_14)"/>
<path d="M13.8215 7.27377C15.5869 7.18633 17.2719 7.14154 18.839 7.9072C20.0288 8.48837 21.0085 9.29989 21.3676 10.6521C21.4908 11.1181 21.5819 11.5926 21.6891 12.0629C21.9717 13.219 22.4397 14.3222 23.0751 15.3303C23.1136 15.3942 23.1533 15.4572 23.1897 15.5222C23.1972 15.5449 23.2012 15.5687 23.2015 15.5926C22.7932 15.5926 22.388 15.6107 21.9839 15.5926C20.5979 15.5179 19.2399 15.2929 17.9483 14.764C15.663 13.8256 14.3714 12.1258 14.0498 9.70191C13.9427 8.91279 13.8976 8.11621 13.8215 7.27377Z" fill="url(#paint4_linear_27_14)"/>
<path d="M28.963 38.412V38.9612C28.1055 38.9484 27.2555 38.991 26.4687 38.653C26.1642 38.5113 25.9023 38.293 25.7087 38.0196C25.0517 37.0939 24.4364 36.1395 23.8094 35.1947C23.5757 34.8418 22.9336 34.6317 22.551 34.8023C22.5237 34.823 22.5014 34.8496 22.4859 34.8801C22.4703 34.9105 22.4618 34.9441 22.4609 34.9782C22.4727 35.9273 22.4867 36.8753 22.5135 37.8233C22.5124 37.9423 22.5556 38.0575 22.6348 38.1466C22.7139 38.2358 22.8234 38.2927 22.9422 38.3064C23.1566 38.3523 23.3806 38.3949 23.6025 38.4237C23.7783 38.4472 23.8737 38.508 23.8565 38.7074C23.8394 38.9068 23.7493 38.927 23.5821 38.926C22.283 38.921 20.9839 38.921 19.6848 38.926C19.5433 38.926 19.4286 38.9324 19.4254 38.734C19.4254 38.557 19.4618 38.4536 19.6569 38.4322C19.852 38.4109 20.0621 38.3704 20.2625 38.3256C20.3652 38.3086 20.4597 38.2594 20.5322 38.1851C20.6047 38.1109 20.6514 38.0155 20.6656 37.9129C20.6965 37.7773 20.7148 37.6392 20.7202 37.5002C20.7267 35.3429 20.7342 33.1857 20.7299 31.0273C20.7299 30.1252 20.6023 30.0036 19.6816 29.9353C19.5101 29.9225 19.3943 29.898 19.4061 29.6858C19.4168 29.5056 19.4704 29.4299 19.6719 29.4309C21.2229 29.4395 22.7739 29.431 24.326 29.4384C24.918 29.4298 25.5005 29.5872 26.0067 29.8927C27.3283 30.7149 27.4152 32.6578 26.1664 33.6666C25.8802 33.8969 25.5501 34.074 25.2221 34.2872C25.2696 34.3852 25.3229 34.4803 25.3818 34.572C26.0646 35.5136 26.7324 36.4658 27.442 37.3872C27.8268 37.8927 28.2823 38.3448 28.963 38.412ZM22.4899 32.1822C22.4781 32.1822 22.507 32.8967 22.4963 32.8967C22.4963 33.4629 22.507 33.3232 22.5017 33.8969C22.5017 34.0772 22.5145 34.1337 22.6968 34.1241C23.1159 34.1017 23.536 34.1017 23.953 34.0676C24.519 34.0217 24.9348 33.7189 25.0946 33.1867C25.2123 32.7886 25.263 32.3739 25.2446 31.9593C25.1985 31.006 24.6744 30.3342 23.8426 30.1305C23.521 30.0526 23.1791 30.0665 22.8458 30.0462C22.5992 30.0313 22.4877 30.1604 22.4888 30.4003C22.4902 30.9946 22.4906 31.5886 22.4899 32.1822Z" fill="black"/>
<path d="M29.3113 38.9239C29.3306 38.7479 29.3456 38.604 29.3649 38.4291C29.5792 38.3917 29.8258 38.3512 30.0712 38.3043C30.3799 38.2446 30.574 38.0729 30.6072 37.7477C30.6233 37.5717 30.6468 37.3957 30.6468 37.2209C30.6468 35.1592 30.6468 33.095 30.6468 31.0284C30.6468 31.0092 30.6468 30.9911 30.6468 30.9719C30.6329 30.1742 30.5021 30.0313 29.6993 29.9332C29.2941 29.8842 29.2705 29.8522 29.3777 29.4448H36.5668C36.5132 29.9076 36.4596 30.3832 36.405 30.8578C36.3857 31.0337 36.3728 31.2097 36.3674 31.3856C36.3546 31.7343 36.3503 31.7418 35.9966 31.7311C35.9503 31.7288 35.9041 31.7242 35.8583 31.7173C35.7597 31.3483 35.6804 30.9964 35.57 30.6509C35.5374 30.5224 35.4631 30.4083 35.3586 30.3261C35.2542 30.244 35.1254 30.1985 34.9922 30.1966C34.2173 30.1764 33.4423 30.1604 32.6684 30.1732C32.5816 30.1732 32.4283 30.3726 32.4262 30.4813C32.4058 31.4944 32.4133 32.5075 32.4122 33.5205C32.4122 33.6741 32.4862 33.7338 32.6395 33.7338C33.3201 33.7167 34.0018 33.7007 34.6835 33.6933C34.9965 33.6933 35.1594 33.5163 35.2452 33.2422C35.2698 33.1622 35.2881 33.0812 35.3063 32.9991C35.4081 32.5491 35.4317 32.5352 35.9001 32.6386V35.6149C35.7733 35.6387 35.6439 35.6455 35.5153 35.6352C35.469 35.6223 35.4261 35.5992 35.39 35.5676C35.3538 35.5361 35.3252 35.4968 35.3063 35.4528C35.1509 34.6232 35.0297 34.4931 34.0693 34.508C33.602 34.5165 33.1347 34.508 32.6684 34.5005C32.4883 34.5005 32.4079 34.5581 32.4101 34.7362C32.4219 35.7119 32.424 36.6887 32.4465 37.6645C32.4454 37.7259 32.4566 37.7869 32.4795 37.8439C32.5024 37.9009 32.5365 37.9528 32.5798 37.9965C32.6232 38.0402 32.6749 38.0749 32.7318 38.0984C32.7888 38.122 32.85 38.134 32.9117 38.1337C33.7049 38.1657 34.4981 38.1881 35.2913 38.1902C35.4521 38.1915 35.6106 38.151 35.7508 38.0726C35.8911 37.9942 36.0083 37.8807 36.0909 37.7434C36.3439 37.3435 36.5893 36.9383 36.8069 36.5181C36.9012 36.3368 36.9934 36.3262 37.1563 36.3859C37.3193 36.4456 37.4265 36.5075 37.3643 36.7058C37.1671 37.3243 36.9716 37.9428 36.778 38.5613C36.7505 38.6755 36.6824 38.7759 36.5862 38.844C36.4901 38.912 36.3723 38.9431 36.2549 38.9313C35.0029 38.9196 33.751 38.9057 32.5033 38.9036C31.5601 38.9036 30.6168 38.9185 29.6725 38.926L29.3113 38.9239Z" fill="black"/>
<path d="M44.4013 29.4619C44.322 30.1742 44.2523 30.8652 44.158 31.5541C44.1483 31.6202 44.0004 31.6906 43.905 31.7162C43.7807 31.7482 43.6639 31.7215 43.6596 31.5435C43.6484 31.4327 43.6309 31.3227 43.607 31.2139C43.4495 30.1358 42.8567 29.737 41.7559 29.7466C41.1675 29.7466 40.7012 30.0004 40.4568 30.5517C40.1985 31.1308 40.2424 31.7066 40.6465 32.2035C40.858 32.451 41.1067 32.6644 41.384 32.8359C41.9081 33.175 42.4559 33.4757 42.9918 33.7957C43.2308 33.9396 43.4656 34.0932 43.6896 34.2595C45.2685 35.4325 44.919 37.6367 43.4838 38.541C42.5523 39.1286 41.5255 39.2416 40.4675 39.1105C39.982 39.0497 39.5028 38.8908 39.0366 38.749C38.9744 38.7257 38.9181 38.6891 38.8718 38.6417C38.8255 38.5944 38.7902 38.5374 38.7686 38.4749C38.625 37.8138 38.5113 37.1462 38.3859 36.4819C38.3516 36.2984 38.4363 36.2195 38.6057 36.1619C38.8018 36.099 38.8779 36.1545 38.9476 36.3454C39.0727 36.713 39.2283 37.0697 39.4128 37.4117C39.9777 38.4024 41.0088 38.6914 41.9564 38.5176C43.0047 38.3267 43.4366 36.9927 42.7185 36.1289C42.4322 35.8145 42.1057 35.5388 41.7473 35.3088C41.176 34.9079 40.5533 34.5762 39.9948 34.1604C38.9347 33.3691 38.5564 32.2963 38.8887 31.151C39.1909 30.1113 39.9605 29.5781 40.9627 29.3318C41.8535 29.1121 42.7453 29.2305 43.6338 29.3553C43.8825 29.3851 44.1301 29.4224 44.4013 29.4619Z" fill="black"/>
<path d="M50.1474 38.8908C49.5472 38.8908 48.9502 38.8908 48.3542 38.8908C47.5696 38.8972 46.785 38.91 45.9961 38.9239C45.8535 38.9239 45.7399 38.9239 45.7345 38.7308C45.7292 38.5378 45.7785 38.4472 45.9725 38.4312C46.1215 38.4184 46.2683 38.3907 46.4152 38.3651C46.9243 38.2734 47.0701 38.1155 47.0797 37.6037C47.099 36.4797 47.1205 35.3558 47.1215 34.2318C47.1215 33.0588 47.1033 31.8858 47.0829 30.7202C47.0744 30.2201 46.9468 30.0804 46.4613 29.9887C46.3605 29.9684 46.2608 29.9471 46.159 29.9364C45.7817 29.897 45.7302 29.8202 45.8578 29.4597H49.9792C50.1003 29.8223 50.0628 29.8863 49.693 29.9386C49.5916 29.9539 49.4914 29.9756 49.3928 30.0036C48.9866 30.1177 48.8783 30.2478 48.873 30.6786C48.8548 32.2121 48.8355 33.7445 48.8301 35.2779C48.8301 36.0244 48.8515 36.7644 48.8708 37.5077C48.888 38.1102 49.0327 38.267 49.6329 38.3693C49.7155 38.3832 49.7969 38.4045 49.8805 38.4163C50.2696 38.4717 50.2932 38.5144 50.1474 38.8908Z" fill="black"/>
<path d="M18.0159 46.4642C18.0952 46.4267 18.1777 46.3964 18.2624 46.3736C18.3019 46.3717 18.3406 46.3617 18.3761 46.3443C18.4116 46.3269 18.4431 46.3025 18.4687 46.2725C18.4943 46.2425 18.5135 46.2076 18.525 46.17C18.5365 46.1324 18.5402 46.0928 18.5358 46.0537C18.5358 45.1608 18.5379 44.2682 18.5422 43.376C18.5422 43.1734 18.4575 43.0678 18.2496 43.0454C18.1647 43.0247 18.0832 42.9924 18.0073 42.9494L18.0373 42.8428H18.9452C19.3557 42.8428 19.7706 42.8151 20.1757 42.8631C20.6795 42.9228 20.9464 43.1936 21.0332 43.6181C21.1104 44.0116 20.9143 44.3901 20.5048 44.6375L20.3001 44.7591C20.8071 45.3701 21.0643 46.187 22.0044 46.4568C21.9036 46.5154 21.8436 46.5815 21.7803 46.5847C21.1779 46.6199 20.6206 46.5538 20.2979 45.9364C20.1693 45.69 19.9839 45.4736 19.851 45.2294C19.718 44.9852 19.5487 44.8892 19.2657 44.966C19.2657 45.3701 19.2539 45.7839 19.2796 46.1944C19.2796 46.2574 19.464 46.3085 19.5615 46.3683C19.6301 46.4098 19.6966 46.4568 19.7641 46.5016C19.6963 46.534 19.6241 46.5566 19.5498 46.5687C19.0481 46.5741 18.5475 46.5687 18.0491 46.5687L18.0159 46.4642ZM19.2443 44.6791C19.5658 44.662 19.8874 44.7559 20.1446 44.5192C20.359 44.3272 20.4019 43.8121 20.2518 43.4944C20.1771 43.3486 20.059 43.2294 19.9135 43.153C19.7681 43.0766 19.6025 43.0469 19.4394 43.0678C19.3665 43.0806 19.2571 43.1819 19.255 43.2448C19.2389 43.7108 19.2464 44.1726 19.2464 44.6791H19.2443Z" fill="black"/>
<path d="M40.0494 46.4941C39.9893 46.5218 39.9304 46.5719 39.8714 46.5719C39.3762 46.5783 38.881 46.5783 38.3858 46.5719C38.3312 46.5719 38.2786 46.5133 38.2218 46.4834C38.2701 46.4514 38.3151 46.3971 38.3655 46.3928C38.6495 46.3683 38.7353 46.2147 38.732 45.9438C38.7213 45.1174 38.732 44.2899 38.732 43.4634C38.732 43.2171 38.6784 43.0433 38.3837 43.0369C38.3215 43.0369 38.2604 42.9601 38.1982 42.9196L38.2293 42.846H38.9968C39.4352 42.846 39.8768 42.8215 40.312 42.862C40.9101 42.9164 41.2563 43.2512 41.3013 43.7439C41.3592 44.3763 41.0559 44.8604 40.4749 45.0289C40.2858 45.0787 40.0906 45.102 39.895 45.0982C39.8136 45.0982 39.731 45.0172 39.6485 44.9734L39.6817 44.8988C39.7632 44.8988 39.8457 44.8935 39.9272 44.8849C40.3077 44.8465 40.5521 44.6162 40.5703 44.2376C40.586 44.0167 40.5647 43.7947 40.5071 43.5807C40.4469 43.4076 40.3266 43.2615 40.1679 43.1687C40.0091 43.0758 39.8223 43.0423 39.641 43.0742C39.5956 43.0898 39.5548 43.1163 39.5221 43.1512C39.4894 43.1862 39.4658 43.2286 39.4534 43.2747C39.4405 44.1939 39.4448 45.1142 39.4427 46.0345C39.4374 46.0735 39.4404 46.1133 39.4515 46.1511C39.4626 46.1889 39.4815 46.2241 39.5071 46.2542C39.5326 46.2843 39.5642 46.3088 39.5998 46.326C39.6354 46.3433 39.6743 46.353 39.7139 46.3544C39.8222 46.3735 39.9296 46.3981 40.0354 46.428L40.0494 46.4941Z" fill="black"/>
<defs>
<linearGradient id="paint0_linear_27_14" x1="28.1515" y1="18.8077" x2="27.7049" y2="0.217431" gradientUnits="userSpaceOnUse">
<stop stop-color="#953788"/>
<stop offset="1" stop-color="#BDABBD"/>
</linearGradient>
<linearGradient id="paint1_linear_27_14" x1="28" y1="19.5" x2="42.7499" y2="21.6869" gradientUnits="userSpaceOnUse">
<stop stop-color="#953788"/>
<stop offset="1" stop-color="#BDABBD"/>
</linearGradient>
<linearGradient id="paint2_linear_27_14" x1="27" y1="19" x2="12.1978" y2="17.2888" gradientUnits="userSpaceOnUse">
<stop stop-color="#953788"/>
<stop offset="1" stop-color="#BDABBD"/>
</linearGradient>
<linearGradient id="paint3_linear_27_14" x1="37.512" y1="15.6832" x2="37.4117" y2="7.20195" gradientUnits="userSpaceOnUse">
<stop stop-color="#953788"/>
<stop offset="1" stop-color="#BDABBD"/>
</linearGradient>
<linearGradient id="paint4_linear_27_14" x1="18.7186" y1="15.4684" x2="18.6229" y2="7.31887" gradientUnits="userSpaceOnUse">
<stop stop-color="#953788"/>
<stop offset="1" stop-color="#BDABBD"/>
</linearGradient>
</defs>
</svg>
