<?xml version="1.0" encoding="utf-8"?><svg xmlns="http://www.w3.org/2000/svg" xmlns:xlink="http://www.w3.org/1999/xlink"><symbol viewBox="0 0 21 13" id="arrow-left" xmlns="http://www.w3.org/2000/svg"><path fill-rule="evenodd" clip-rule="evenodd" d="M5.932.87L.956 5.936a.807.807 0 000 1.126l4.976 5.067c.305.311.8.311 1.105 0a.807.807 0 000-1.126l-3.64-3.708H19.49a.79.79 0 00.782-.796.79.79 0 00-.782-.796H3.397l3.64-3.708a.807.807 0 000-1.127.772.772 0 00-1.105 0z"/></symbol><symbol viewBox="0 0 21 13" id="arrow-right" xmlns="http://www.w3.org/2000/svg"><path fill-rule="evenodd" clip-rule="evenodd" d="M15.068.87l4.976 5.067a.807.807 0 010 1.126l-4.976 5.067a.771.771 0 01-1.105 0 .807.807 0 010-1.126l3.64-3.708H1.51A.79.79 0 01.727 6.5c0-.44.35-.796.782-.796h16.095l-3.641-3.708a.807.807 0 010-1.127.772.772 0 011.105 0z"/></symbol><symbol viewBox="0 0 22 24" id="basket" xmlns="http://www.w3.org/2000/svg"><g clip-path="url(#ca)"><path d="M10.363 18.443a2.046 2.046 0 00-2.045 2.042 2.046 2.046 0 004.09 0 2.046 2.046 0 00-2.045-2.042zm6.134 0a2.046 2.046 0 00-2.045 2.042 2.046 2.046 0 004.089 0 2.046 2.046 0 00-2.044-2.042zm3.978-8.199L7.413 6.891a.614.614 0 00-.75.73L8.67 16.4h-.786L5.482 5.895a.613.613 0 00-.474-.464l-4.27-.882A.614.614 0 00.489 5.75l3.885.802L6.797 17.15a.613.613 0 00.598.477h12.07a.615.615 0 00.607-.53l.858-6.175a.613.613 0 00-.455-.678zm-8.14 3.91a.613.613 0 01-1.227 0v-2.696a.613.613 0 011.227 0v2.696zm2.625 0a.613.613 0 01-1.227 0v-1.88a.613.613 0 011.227 0v1.88zm2.625 0a.613.613 0 01-1.227 0v-1.226a.613.613 0 011.227 0v1.226z"/></g><path fill-rule="evenodd" clip-rule="evenodd" d="M16.268 4.568a2.996 2.996 0 00-1.693-.523c-.627 0-1.21.193-1.693.523-.28-.843-.492-1.752-.492-2.383C12.39.98 13.37 0 14.575 0s2.185.98 2.185 2.185c0 .631-.212 1.54-.492 2.383zm-4.722 2.274l.024.006v-.011l-.024.005zm4.972 1.217c-1.333-.33-2.766-.681-4.129-1.013a2.185 2.185 0 114.129 1.013zm4.436 1.103c-.866-.217-2.155-.538-3.618-.9a2.995 2.995 0 00.243-1.425c.87.18 1.762.45 2.308.765.596.344.969.928 1.067 1.56zM9.869 6.439c-.36-.086-.706-.167-1.03-.243a2.19 2.19 0 01-.376-2.667 2.188 2.188 0 013.147-.7c.098.738.338 1.599.61 2.353a3.01 3.01 0 00-.449.774c-.628.113-1.305.278-1.902.483zm10.124.075a3.43 3.43 0 01-.217.114c-.696-.295-1.587-.526-2.397-.672a3.01 3.01 0 00-.449-.774c.262-.727.494-1.553.599-2.273.095-.067.189-.128.278-.18a2.188 2.188 0 012.986.8 2.188 2.188 0 01-.8 2.985z"/><defs><clipPath id="ca"><path transform="translate(0 3.064)" d="M0 0h20.936v20.936H0z"/></clipPath></defs></symbol><symbol viewBox="0 0 344.96 344.96" id="check" xmlns="http://www.w3.org/2000/svg"><g data-name="Слой 2"><path class="dcls-1" d="M321.85 86.24l-40-23.11-23.1-40H212.5L172.48 0l-40 23.11H86.24l-23.11 40-40 23.1v46.21L0 172.48l23.11 40v46.21l40 23.11 23.11 40h46.21l40 23.1 40-23.11h46.21l23.11-40 40-23.11V212.5l23.11-40-23.11-40V86.24zM156.91 243.07a16.79 16.79 0 01-23.34 0l-50.45-50.44a16.19 16.19 0 010-22.89l13.35-13.35a16.19 16.19 0 0122.89 0l25.87 25.87 80.34-80.35a16.19 16.19 0 0122.89 0l13.35 13.35a16.19 16.19 0 010 22.89z" data-name="Capa 1"/></g></symbol><symbol viewBox="0 0 5 4" id="dd-button" xmlns="http://www.w3.org/2000/svg"><path d="M2.5 4L0 0h5L2.5 4z"/></symbol><symbol viewBox="0 0 54 70" id="document" xmlns="http://www.w3.org/2000/svg"><path d="M52.887 18.45L35.55 1.112c-.5-.5-1.176-.781-1.883-.781h-28A5.333 5.333 0 00.332 5.668v58.664a5.333 5.333 0 005.336 5.336h42.664a5.333 5.333 0 005.336-5.336v-44c0-.707-.281-1.383-.781-1.883zM35 51H13.668A2.669 2.669 0 0111 48.332a2.668 2.668 0 012.668-2.664H35a2.668 2.668 0 012.668 2.664A2.669 2.669 0 0135 51zm5.332-10.668H13.668A2.668 2.668 0 0111 37.668 2.669 2.669 0 0113.668 35h26.664A2.669 2.669 0 0143 37.668a2.668 2.668 0 01-2.668 2.664zM35 21.668A2.669 2.669 0 0132.332 19V5.41L48.59 21.668H35z"/></symbol><symbol viewBox="0 0 28 28" id="document-small" xmlns="http://www.w3.org/2000/svg"><path d="M23.06 8.207L16.993 2.14a.931.931 0 00-.66-.274h-9.8a1.867 1.867 0 00-1.867 1.868v20.532c0 1.032.835 1.868 1.868 1.868h14.932a1.867 1.867 0 001.868-1.868v-15.4a.931.931 0 00-.274-.659zM16.8 19.6H9.334a.934.934 0 010-1.866H16.8a.934.934 0 010 1.866zm1.866-3.734H9.334a.934.934 0 010-1.866h9.332a.934.934 0 010 1.866zM16.8 9.334a.934.934 0 01-.934-.934V3.644l5.69 5.69H16.8z"/></symbol><symbol viewBox="0 0 7 14" id="facebook" xmlns="http://www.w3.org/2000/svg"><path d="M4.64 3.021h1.603V.477H4.358v.009C2.074.573 1.606 1.952 1.565 3.4H1.56v1.27H.005v2.493H1.56v6.68h2.344v-6.68h1.92l.371-2.492h-2.29v-.768c0-.49.303-.883.735-.883z"/></symbol><symbol viewBox="0 0 24 24" id="fb" xmlns="http://www.w3.org/2000/svg"><path d="M13.397 20.997v-8.196h2.765l.411-3.209h-3.176V7.548c0-.926.258-1.56 1.587-1.56h1.684v-2.86A22.108 22.108 0 0014.201 3c-2.444 0-4.122 1.492-4.122 4.231v2.355H7.332v3.21h2.753v8.201h3.312z"/></symbol><symbol viewBox="0 0 24 24" id="instagram" xmlns="http://www.w3.org/2000/svg"><path d="M11.999 7.377a4.624 4.624 0 100 9.248 4.624 4.624 0 000-9.248zm0 7.627a3.004 3.004 0 110-6.008 3.004 3.004 0 010 6.008zm4.807-6.719a1.078 1.078 0 100-2.156 1.078 1.078 0 000 2.156z"/><path d="M20.533 6.11A4.605 4.605 0 0017.9 3.48a6.607 6.607 0 00-2.186-.42c-.963-.042-1.268-.054-3.71-.054s-2.755 0-3.71.054a6.554 6.554 0 00-2.184.42 4.6 4.6 0 00-2.633 2.63 6.585 6.585 0 00-.419 2.186c-.043.962-.056 1.267-.056 3.71 0 2.442 0 2.753.056 3.71.015.748.156 1.486.419 2.187a4.61 4.61 0 002.634 2.632 6.583 6.583 0 002.185.45c.963.042 1.268.055 3.71.055s2.755 0 3.71-.055a6.616 6.616 0 002.186-.42 4.613 4.613 0 002.633-2.632c.263-.7.404-1.438.419-2.186.043-.962.056-1.267.056-3.71s0-2.753-.056-3.71a6.583 6.583 0 00-.421-2.217zm-1.218 9.533a5.046 5.046 0 01-.311 1.688 2.987 2.987 0 01-1.712 1.71c-.535.2-1.1.305-1.67.312-.95.044-1.218.055-3.654.055-2.438 0-2.687 0-3.655-.055a4.961 4.961 0 01-1.67-.311 2.984 2.984 0 01-1.718-1.711 5.08 5.08 0 01-.311-1.67c-.043-.95-.053-1.217-.053-3.653 0-2.437 0-2.686.053-3.655a5.038 5.038 0 01.311-1.687c.305-.79.93-1.41 1.719-1.712a5.01 5.01 0 011.669-.311c.95-.043 1.218-.055 3.655-.055s2.687 0 3.654.055a4.96 4.96 0 011.67.31 2.99 2.99 0 011.712 1.713 5.06 5.06 0 01.311 1.669c.043.95.054 1.218.054 3.655 0 2.436 0 2.698-.043 3.654h-.011v-.001z"/></symbol><symbol viewBox="0 0 30 30" id="picture" xmlns="http://www.w3.org/2000/svg"><path d="M4 5a2 2 0 00-2 2v16a2 2 0 002 2h22a2 2 0 002-2V7a2 2 0 00-2-2H4zm19 3a2 2 0 11.001 3.999A2 2 0 0123 8zM9 12.002c.62 0 1.238.236 1.71.709l3.263 3.262L15 17l1.156 1.156a1.082 1.082 0 001.525-1.535l-1.152-1.15.76-.76a2.42 2.42 0 013.422 0L25 19v3H5v-7l2.29-2.29A2.412 2.412 0 019 12.003z"/></symbol><symbol viewBox="0 0 36 42" id="play" xmlns="http://www.w3.org/2000/svg"><path d="M35 19.268c1.333.77 1.333 2.694 0 3.464L3.5 40.92c-1.333.77-3-.193-3-1.732V2.813c0-1.54 1.667-2.501 3-1.732L35 19.268z"/></symbol><symbol viewBox="0 0 21 24" id="play-small" xmlns="http://www.w3.org/2000/svg"><path d="M20 10.268c1.333.77 1.333 2.694 0 3.464L3.5 23.258c-1.333.77-3-.192-3-1.732V2.474C.5.934 2.167-.028 3.5.742L20 10.268z"/></symbol><symbol viewBox="0 0 15 13" id="telegram" xmlns="http://www.w3.org/2000/svg"><path d="M.946 6.46l3.286 1.23 1.271 4.11a.387.387 0 00.615.187l1.831-1.5a.544.544 0 01.666-.02l3.303 2.41c.228.167.55.041.607-.235L14.945.946a.388.388 0 00-.519-.443L.942 5.731a.39.39 0 00.004.728zm4.353.575l6.42-3.974c.116-.071.235.086.136.178l-5.3 4.95a1.106 1.106 0 00-.34.661l-.18 1.344c-.024.18-.275.198-.325.024l-.694-2.452a.651.651 0 01.283-.73z"/></symbol><symbol viewBox="0 0 15 16" id="viber" xmlns="http://www.w3.org/2000/svg"><path d="M11.162.835a19.059 19.059 0 00-7.361 0c-1.069.245-2.413 1.572-2.675 2.639a14.921 14.921 0 000 6.22c.262 1.067 1.607 2.393 2.675 2.638.048.01.083.053.083.103v3.024c0 .15.18.225.281.116L5.56 14.1l1.311-1.387a.099.099 0 01.075-.03c1.408.04 2.818-.078 4.216-.351 1.069-.245 2.413-1.572 2.675-2.639a14.903 14.903 0 000-6.22c-.262-1.067-1.606-2.394-2.675-2.639zm.037 9.013c-.213.467-.524.856-.973 1.104-.126.07-.277.093-.42.138-.164-.051-.32-.086-.466-.148-1.507-.643-2.893-1.474-3.99-2.746-.625-.724-1.114-1.541-1.527-2.406-.196-.41-.361-.836-.53-1.26-.153-.385.073-.784.311-1.075.223-.273.51-.482.822-.636.243-.12.482-.05.66.161.383.459.736.94 1.021 1.472.175.327.127.726-.19.949-.078.054-.148.117-.22.178a.733.733 0 00-.166.18.506.506 0 00-.032.433c.392 1.11 1.053 1.973 2.137 2.437.174.075.348.161.548.137.335-.04.443-.418.678-.616.23-.193.522-.196.77-.035.246.161.486.334.724.509.233.171.466.34.682.535.207.188.278.434.162.69zM9.256 6.233a.292.292 0 01-.022-.001c-.15-.006-.232-.097-.248-.246-.012-.108-.022-.218-.047-.324a.916.916 0 00-.326-.528.842.842 0 00-.267-.132c-.12-.036-.246-.026-.367-.057-.13-.033-.203-.142-.183-.268a.238.238 0 01.25-.196c.764.056 1.31.463 1.388 1.39.005.065.012.134-.002.196-.023.102-.094.155-.165.164.006 0 .005 0-.011.002zM8.78 4.115a2.631 2.631 0 00-.745-.236c-.112-.019-.226-.03-.339-.046-.136-.02-.21-.11-.203-.248.006-.13.098-.224.236-.216.452.026.889.127 1.29.346.818.446 1.285 1.15 1.421 2.09.007.042.017.084.02.127l.02.35c-.003.025-.005.085-.02.14-.051.205-.351.23-.42.025a.632.632 0 01-.024-.197c0-.43-.091-.859-.302-1.232a2.257 2.257 0 00-.934-.903zm2.526 2.904c-.158.002-.23-.134-.24-.28-.02-.289-.034-.579-.073-.865-.204-1.512-1.374-2.762-2.835-3.03-.22-.04-.445-.051-.667-.075-.141-.016-.325-.024-.357-.205-.026-.15.098-.271.238-.279.038-.002.076 0 .114 0 1.892.055.115.004.005 0 1.968.06 3.584 1.405 3.93 3.41.06.341.08.69.107 1.037.01.146-.07.285-.222.287z"/></symbol><symbol viewBox="0 0 24 24" id="vk" xmlns="http://www.w3.org/2000/svg"><path d="M21.579 6.855c.14-.465 0-.806-.662-.806h-2.193c-.558 0-.813.295-.953.619 0 0-1.115 2.719-2.695 4.482-.51.513-.743.675-1.021.675-.139 0-.341-.162-.341-.627V6.855c0-.558-.161-.806-.626-.806H9.642c-.348 0-.558.258-.558.504 0 .528.79.65.871 2.138v3.228c0 .707-.127.836-.407.836-.743 0-2.551-2.73-3.624-5.853-.209-.607-.42-.852-.98-.852H2.752c-.627 0-.752.295-.752.619 0 .582.743 3.462 3.461 7.27 1.812 2.602 4.363 4.012 6.687 4.012 1.393 0 1.565-.313 1.565-.853v-1.966c0-.626.133-.752.574-.752.324 0 .882.164 2.183 1.417 1.486 1.486 1.732 2.153 2.567 2.153h2.192c.626 0 .939-.313.759-.931-.197-.615-.907-1.51-1.849-2.57-.512-.603-1.277-1.253-1.51-1.578-.325-.42-.231-.604 0-.976.001 0 2.672-3.761 2.95-5.04z"/></symbol><symbol viewBox="0 0 16 16" id="whatsapp" xmlns="http://www.w3.org/2000/svg"><path d="M7.805.585h-.004C3.625.585.228 3.983.228 8.161A7.52 7.52 0 001.67 12.6l-.944 2.814 2.912-.931a7.51 7.51 0 004.167 1.252c4.177 0 7.573-3.399 7.573-7.575 0-4.177-3.396-7.576-7.573-7.576zm4.408 10.697c-.183.517-.908.944-1.487 1.07-.396.084-.913.151-2.653-.57-2.226-.923-3.66-3.185-3.771-3.332-.107-.146-.9-1.197-.9-2.285 0-1.087.552-1.616.775-1.843.182-.187.484-.272.774-.272.094 0 .178.005.254.009.222.01.334.022.48.374.184.44.629 1.527.682 1.639.054.111.108.263.032.41-.071.151-.134.218-.245.347-.112.129-.218.228-.33.366-.102.12-.218.249-.089.471.129.218.574.944 1.23 1.528.845.752 1.53.993 1.776 1.095.182.076.4.058.534-.084.17-.183.378-.486.591-.784.152-.214.343-.24.544-.165.204.071 1.287.606 1.51.717.222.112.369.165.423.258.053.094.053.534-.13 1.052z"/></symbol></svg>