<svg width="54" height="70" viewBox="0 0 54 70" fill="none" xmlns="http://www.w3.org/2000/svg">
<path d="M52.8867 18.4492L35.5508 1.11328C35.0508 0.613281 34.375 0.332031 33.668 0.332031H5.66797C2.71875 0.332031 0.332031 2.71875 0.332031 5.66797V64.332C0.332031 67.2813 2.71875 69.668 5.66797 69.668H48.332C51.2813 69.668 53.668 67.2813 53.668 64.332V20.332C53.668 19.625 53.3867 18.9492 52.8867 18.4492ZM35 51H13.668C12.1953 51 11 49.8047 11 48.332C11 46.8633 12.1953 45.668 13.668 45.668H35C36.4727 45.668 37.668 46.8633 37.668 48.332C37.668 49.8047 36.4727 51 35 51ZM40.332 40.332H13.668C12.1953 40.332 11 39.1367 11 37.668C11 36.1953 12.1953 35 13.668 35H40.332C41.8047 35 43 36.1953 43 37.668C43 39.1367 41.8047 40.332 40.332 40.332ZM35 21.668C33.5273 21.668 32.332 20.4727 32.332 19V5.41016L48.5898 21.668H35Z" fill="#953788"/>
</svg>
