<svg width="28" height="28" viewBox="0 0 28 28" fill="none" xmlns="http://www.w3.org/2000/svg">
<path d="M23.0602 8.20723L16.9926 2.13965C16.8176 1.96465 16.5811 1.86621 16.3336 1.86621H6.53359C5.50137 1.86621 4.66602 2.70156 4.66602 3.73379V24.2662C4.66602 25.2984 5.50137 26.1338 6.53359 26.1338H21.466C22.4982 26.1338 23.3336 25.2984 23.3336 24.2662V8.86621C23.3336 8.61875 23.2352 8.38223 23.0602 8.20723ZM16.7998 19.6H9.33359C8.81816 19.6 8.3998 19.1816 8.3998 18.6662C8.3998 18.1521 8.81816 17.7338 9.33359 17.7338H16.7998C17.3152 17.7338 17.7336 18.1521 17.7336 18.6662C17.7336 19.1816 17.3152 19.6 16.7998 19.6ZM18.666 15.8662H9.33359C8.81816 15.8662 8.3998 15.4479 8.3998 14.9338C8.3998 14.4184 8.81816 14 9.33359 14H18.666C19.1814 14 19.5998 14.4184 19.5998 14.9338C19.5998 15.4479 19.1814 15.8662 18.666 15.8662ZM16.7998 9.33379C16.2844 9.33379 15.866 8.91543 15.866 8.4V3.64355L21.5562 9.33379H16.7998Z" fill="#953788"/>
</svg>
