<svg width="15" height="13" viewBox="0 0 15 13" fill="none" xmlns="http://www.w3.org/2000/svg">
<path d="M0.946193 6.45909L4.23177 7.69147L5.50349 11.8017C5.58486 12.0649 5.90517 12.1622 6.11777 11.9875L7.94921 10.4871C8.14119 10.3299 8.41463 10.322 8.61525 10.4684L11.9185 12.8786C12.1459 13.0447 12.4682 12.9194 12.5252 12.6433L14.945 0.945607C15.0073 0.643912 14.7123 0.392228 14.4264 0.503334L0.942344 5.73098C0.609584 5.85995 0.612483 6.33341 0.946193 6.45909ZM5.29854 7.03544L11.7198 3.06091C11.8352 2.98969 11.9539 3.14651 11.8548 3.23889L6.55543 8.18944C6.36916 8.36369 6.24901 8.59689 6.21497 8.85001L6.03445 10.1944C6.01055 10.374 5.75963 10.3918 5.71034 10.218L5.01607 7.76642C4.93655 7.48679 5.05243 7.1881 5.29854 7.03544Z" fill="white"/>
</svg>
