<svg width="15" height="16" viewBox="0 0 15 16" fill="none" xmlns="http://www.w3.org/2000/svg">
<path d="M11.1623 0.835362C8.72018 0.356963 6.24353 0.356963 3.80086 0.835362C2.7325 1.0804 1.38842 2.40669 1.12564 3.47351C0.688587 5.53768 0.688587 7.6302 1.12564 9.69437C1.38842 10.7612 2.7325 12.0875 3.80086 12.3325L3.80167 12.3327C3.84926 12.3423 3.88396 12.3847 3.88396 12.4347V15.4586C3.88396 15.6097 4.0631 15.6841 4.16508 15.5747L5.55988 14.1006C5.55988 14.1006 6.67136 12.9257 6.87122 12.7144C6.89075 12.6937 6.91773 12.6826 6.94568 12.6833C8.35392 12.7235 9.76367 12.6064 11.1623 12.3326C12.2307 12.0875 13.5753 10.7612 13.8375 9.69443C14.2751 7.63025 14.2751 5.53774 13.8375 3.47356C13.5752 2.40669 12.2312 1.0804 11.1623 0.835362ZM11.1995 9.84834C10.9859 10.3155 10.675 10.7042 10.2265 10.9523C10.0999 11.0223 9.94869 11.0449 9.80587 11.0902C9.64162 11.0388 9.48509 11.0043 9.33973 10.9422C7.83345 10.2987 6.44716 9.46845 5.34907 8.19577C4.72462 7.47206 4.23582 6.655 3.82272 5.79033C3.6268 5.38027 3.46169 4.95416 3.29339 4.53082C3.13988 4.14477 3.36597 3.74593 3.60397 3.45506C3.8273 3.18208 4.11468 2.97316 4.42591 2.81919C4.66883 2.69901 4.90845 2.7683 5.08587 2.98033C5.4694 3.43872 5.82169 3.92057 6.10696 4.45192C6.28238 4.77874 6.23425 5.17824 5.91633 5.40066C5.83906 5.45473 5.76865 5.51818 5.69667 5.57924C5.63354 5.63275 5.57413 5.68681 5.53085 5.75927C5.45175 5.89179 5.44798 6.0482 5.49891 6.19233C5.89097 7.30182 6.55179 8.16455 7.63623 8.62922C7.80981 8.70357 7.98404 8.79013 8.18395 8.76613C8.51876 8.72585 8.62716 8.34768 8.86177 8.1501C9.09109 7.95702 9.38413 7.95446 9.63115 8.11543C9.87822 8.27645 10.1177 8.44931 10.3558 8.624C10.5895 8.79547 10.8222 8.96321 11.0377 9.15868C11.2449 9.3466 11.3162 9.59319 11.1995 9.84834ZM9.25469 6.23289C9.16118 6.23461 9.19793 6.23272 9.23348 6.23167C9.08278 6.22622 9.00082 6.13488 8.98463 5.98636C8.97281 5.87784 8.96348 5.76788 8.93834 5.66231C8.8888 5.45439 8.78148 5.2617 8.61168 5.13429C8.53149 5.07412 8.44063 5.03022 8.34545 5.002C8.22453 4.96605 8.09897 4.97594 7.97832 4.94549C7.84731 4.91248 7.77485 4.80319 7.7954 4.67662C7.81413 4.56144 7.92296 4.47153 8.04518 4.48065C8.80905 4.53743 9.355 4.9441 9.43291 5.87017C9.43842 5.93551 9.44489 6.00452 9.43081 6.06703C9.40793 6.16866 9.33741 6.22155 9.26613 6.23117C9.27196 6.23128 9.27082 6.23178 9.25469 6.23289ZM8.7797 4.11487C8.54531 3.99669 8.29182 3.92324 8.03487 3.87945C7.92258 3.86034 7.80911 3.84873 7.69628 3.83256C7.55956 3.813 7.4866 3.72326 7.49303 3.58452C7.49907 3.4545 7.59134 3.36099 7.72893 3.36899C8.18109 3.39544 8.61783 3.49607 9.01981 3.71526C9.83727 4.16105 10.3042 4.8647 10.4405 5.80427C10.4467 5.84684 10.4566 5.88901 10.4597 5.93174C10.4675 6.0372 10.4723 6.14282 10.4802 6.2819C10.4769 6.30723 10.4752 6.3668 10.4609 6.42291C10.4086 6.62661 10.1087 6.65211 10.0396 6.44653C10.0192 6.38552 10.0161 6.31612 10.016 6.25045C10.0153 5.82072 9.92457 5.39144 9.71414 5.01755C9.49782 4.63339 9.16728 4.31034 8.7797 4.11487ZM11.3056 7.01866C11.1476 7.02061 11.0766 6.88454 11.0663 6.73868C11.046 6.44998 11.032 6.15999 10.9933 5.87367C10.7894 4.3623 9.61901 3.1119 8.15816 2.84359C7.93834 2.80319 7.71328 2.79258 7.49065 2.76852C7.34988 2.7533 7.1655 2.74452 7.13432 2.56432C7.10815 2.41325 7.23198 2.29295 7.37168 2.28523C7.40966 2.28312 7.44786 2.2849 7.48601 2.28506C9.37804 2.33968 7.60148 2.28929 7.49108 2.28534C9.45903 2.34441 11.0748 3.69015 11.4213 5.6942C11.4804 6.03597 11.5014 6.38541 11.5277 6.73229C11.5387 6.87815 11.4585 7.01678 11.3056 7.01866Z" fill="white"/>
</svg>
