<svg width="16" height="16" viewBox="0 0 16 16" fill="none" xmlns="http://www.w3.org/2000/svg">
<path d="M7.80505 0.585449H7.80126C3.62453 0.585449 0.228027 3.98289 0.228027 8.16058C0.228027 9.81764 0.762074 11.3535 1.67014 12.6006L0.726092 15.4147L3.63778 14.4839C4.8356 15.2774 6.26446 15.7357 7.80505 15.7357C11.9818 15.7357 15.3783 12.3373 15.3783 8.16058C15.3783 3.98384 11.9818 0.585449 7.80505 0.585449ZM12.2128 11.2825C12.0301 11.7985 11.3048 12.2265 10.7262 12.3515C10.3304 12.4358 9.81341 12.503 8.07302 11.7815C5.84688 10.8592 4.41329 8.5971 4.30155 8.45033C4.19455 8.30356 3.40201 7.25251 3.40201 6.16548C3.40201 5.07845 3.95404 4.54914 4.17656 4.32188C4.35931 4.13534 4.66137 4.05012 4.95112 4.05012C5.04486 4.05012 5.12914 4.05486 5.20489 4.05865C5.42741 4.06812 5.53914 4.08137 5.68591 4.43267C5.86866 4.87297 6.3137 5.96 6.36672 6.07174C6.4207 6.18347 6.47467 6.33497 6.39892 6.48174C6.3279 6.63324 6.26541 6.70047 6.15367 6.82925C6.04194 6.95803 5.93589 7.0565 5.82415 7.19475C5.72189 7.31501 5.60637 7.44378 5.73515 7.6663C5.86392 7.88409 6.30896 8.61035 6.96421 9.19364C7.80979 9.94642 8.49533 10.1869 8.74058 10.2892C8.92333 10.3649 9.14111 10.347 9.27463 10.2049C9.44412 10.0222 9.65338 9.71916 9.86643 9.42089C10.0179 9.20689 10.2092 9.18038 10.4099 9.25613C10.6145 9.32715 11.6968 9.86214 11.9193 9.97293C12.1418 10.0847 12.2886 10.1377 12.3426 10.2314C12.3956 10.3252 12.3956 10.7655 12.2128 11.2825Z" fill="white"/>
</svg>
